# WaveFront *.obj file (generated by Cheetah3D)

mtllib asteroid4.mtl

g Landscape
v 0.000000 -0.470749 0.000000
v 0.013261 0.505023 0.006735
v 0.161057 -0.388826 0.000000
v 0.159822 -0.417635 -0.066200
v 0.123289 -0.420934 -0.123289
v 0.068378 -0.431376 -0.165080
v -0.000000 -0.459861 -0.190481
v -0.072920 -0.460028 -0.176045
v -0.139344 -0.475752 -0.139344
v -0.181681 -0.474754 -0.075255
v -0.201192 -0.485720 0.000000
v -0.178724 -0.467029 0.074030
v -0.144606 -0.364881 0.138213
v -0.065265 -0.411731 0.157563
v 0.000000 -0.462142 0.191426
v 0.075032 -0.473349 0.181143
v 0.133628 -0.456233 0.133628
v 0.167238 -0.437015 0.069272
v 0.356919 -0.356919 0.000000
v 0.301402 -0.326235 -0.124845
v 0.206639 -0.292231 -0.206639
v 0.110423 -0.288550 -0.266586
v -0.000000 -0.291880 -0.291880
v -0.130235 -0.340321 -0.314416
v -0.226375 -0.320143 -0.226375
v -0.293728 -0.317929 -0.121666
v -0.347205 -0.347205 0.000000
v -0.332518 -0.359915 0.137734
v -0.234627 -0.331813 0.234627
v -0.140600 -0.367406 0.339439
v 0.000000 -0.366486 0.366486
v 0.137888 -0.360320 0.332892
v 0.257296 -0.363871 0.257296
v 0.310074 -0.335622 0.128437
v 0.453146 -0.187699 0.000000
v 0.349174 -0.156549 -0.144633
v 0.284456 -0.166630 -0.284456
v 0.151124 -0.163575 -0.364845
v -0.000000 -0.167439 -0.404233
v -0.168326 -0.182195 -0.406374
v -0.302410 -0.177148 -0.302410
v -0.455809 -0.204358 -0.188802
v -0.434943 -0.180159 0.000000
v -0.352091 -0.194072 0.188506
v -0.238776 -0.187190 0.328760
v -0.175616 -0.190085 0.423974
v 0.011424 -0.165806 0.426617
v 0.144614 -0.234428 0.384026
v 0.284536 -0.166678 0.284537
v 0.418409 -0.187590 0.173311
v 0.511702 0.000000 0.000000
v 0.433684 0.000000 -0.179638
v 0.337909 0.000000 -0.337909
v 0.197091 0.000000 -0.475819
v -0.000000 0.000000 -0.505336
v -0.198717 0.000000 -0.479744
v -0.325213 0.000000 -0.375487
v -0.464293 0.000000 -0.227377
v -0.461211 0.000000 0.000000
v -0.375944 0.000000 0.198386
v -0.251716 0.000000 0.341699
v -0.184752 0.000000 0.446031
v 0.000000 0.000000 0.477850
v 0.390595 0.000000 0.277198
v 0.456537 0.000000 0.189104
v 0.476410 0.197335 0.000000
v 0.422938 0.189621 -0.175187
v 0.273181 0.109749 -0.293847
v 0.129885 0.111338 -0.394120
v -0.000000 0.179759 -0.433977
v -0.177068 0.191657 -0.427480
v -0.251107 0.162309 -0.301382
v -0.407287 0.194247 -0.203765
v -0.442462 0.183274 0.000000
v -0.446646 0.200250 0.185007
v -0.324626 0.190161 0.324626
v -0.186323 0.201675 0.449824
v 0.000000 0.161525 0.389957
v 0.148401 0.212062 0.323451
v 0.308861 0.180927 0.308861
v 0.430991 0.193231 0.178522
v 0.339442 0.339442 0.000000
v 0.343294 0.371579 -0.142197
v 0.219336 0.294991 -0.240002
v 0.090449 0.271926 -0.298914
v -0.000000 0.315725 -0.315725
v -0.116577 0.304630 -0.281441
v -0.194619 0.275233 -0.194619
v -0.302526 0.327452 -0.125310
v -0.341405 0.341405 0.000000
v -0.301366 0.326196 0.124830
v -0.248754 0.351791 0.248754
v -0.129720 0.338975 0.313172
v 0.000000 0.269717 0.269717
v 0.112636 0.294332 0.271928
v 0.234091 0.331055 0.234091
v 0.330996 0.358267 0.137103
v 0.165811 0.400304 0.000000
v 0.161841 0.422912 -0.067037
v 0.122892 0.419581 -0.122892
v 0.082086 0.514280 -0.159423
v 0.013261 0.504827 -0.169198
v -0.070190 0.442806 -0.169454
v -0.134789 0.460197 -0.134789
v -0.158753 0.414842 -0.065758
v -0.171985 0.415208 0.000000
v -0.158766 0.414876 0.065763
v -0.124611 0.425449 0.124611
v -0.071920 0.453716 0.173630
v 0.000000 0.367327 0.152152
v 0.060819 0.383688 0.146831
v 0.126630 0.432342 0.126630
v 0.157219 0.410833 0.065122
v -0.038690 -0.114561 0.228636
v 0.078494 -0.106806 0.212243
v 0.154079 -0.086898 0.125602
v -0.054099 -0.018471 0.261936
v 0.093746 -0.001963 0.207454
v 0.223071 0.014388 0.126594
v -0.052981 0.067478 0.216288
v 0.087993 0.079375 0.151367
v 0.259477 0.132632 0.113779

vt 1.964166 0.037987
vt 1.900315 0.059770
vt 1.886661 0.080269
vt 1.956602 0.127273
vt 0.021894 0.042804
vt -0.035834 0.037987
vt -0.043398 0.127273
vt 0.017757 0.175363
vt 0.084565 0.039946
vt 0.085312 0.190931
vt 0.166003 0.018113
vt 0.172381 0.196682
vt 0.276313 0.020676
vt 0.315929 0.158200
vt 0.449820 0.004972
vt 0.509956 0.174729
vt 0.655402 0.001709
vt 0.716487 0.169877
vt 0.821927 -0.016014
vt 0.860338 0.130957
vt 0.943061 -0.006403
vt 0.960067 0.102945
vt 1.059188 0.034563
vt 1.051940 0.115177
vt 1.185226 0.033512
vt 1.145762 0.063126
vt 1.332719 -0.024235
vt 1.279589 0.053026
vt 1.536436 -0.038726
vt 1.467085 0.054690
vt 1.712656 -0.020041
vt 1.656881 0.052122
vt 1.825559 0.003968
vt 1.793949 0.090811
vt 1.876239 0.243838
vt 1.947761 0.296204
vt -0.052239 0.296204
vt 0.015534 0.304562
vt 0.086398 0.323809
vt 0.179632 0.332874
vt 0.327089 0.328143
vt 0.536651 0.330084
vt 0.741651 0.299889
vt 0.875010 0.303058
vt 0.969178 0.270217
vt 1.054656 0.255789
vt 1.148348 0.233562
vt 1.289911 0.246673
vt 1.453042 0.224032
vt 1.642121 0.244813
vt 1.779155 0.227786
vt 1.867973 0.428074
vt 1.942799 0.451461
vt -0.057201 0.451461
vt 0.011051 0.473640
vt 0.086209 0.496304
vt 0.181399 0.510870
vt 0.332010 0.519749
vt 0.550321 0.515134
vt 0.754585 0.507689
vt 0.886458 0.484692
vt 0.978822 0.464583
vt 1.063429 0.442318
vt 1.155452 0.421808
vt 1.279278 0.407718
vt 1.508166 0.308228
vt 1.355983 0.305575
vt 1.329479 0.399040
vt 1.525847 0.412656
vt 1.654834 0.332823
vt 1.690401 0.429959
vt 1.695488 0.406039
vt 1.769201 0.411444
vt 1.858442 0.627404
vt 1.933789 0.641183
vt -0.066211 0.641183
vt 0.000952 0.657369
vt 0.073127 0.677817
vt 0.165047 0.683088
vt 0.318379 0.704606
vt 0.541224 0.665307
vt 0.766303 0.696083
vt 0.899372 0.666820
vt 0.990060 0.664624
vt 1.074019 0.632789
vt 1.163977 0.623116
vt 1.297381 0.578416
vt 1.348759 0.489687
vt 1.564921 0.500188
vt 1.710591 0.547393
vt 1.625147 0.588346
vt 1.760379 0.607214
vt 1.844227 0.777438
vt 1.918724 0.824260
vt -0.081276 0.824260
vt -0.015521 0.840040
vt 0.051117 0.830663
vt 0.132783 0.806608
vt 0.269261 0.798703
vt 0.512758 0.764747
vt 0.783513 0.815958
vt 0.922957 0.819022
vt 1.017897 0.788391
vt 1.098100 0.797916
vt 1.193671 0.771417
vt 1.332206 0.699191
vt 1.481176 0.627279
vt 1.476925 0.717012
vt 1.625629 0.750625
vt 1.750483 0.782366
vt 1.815650 0.848387
vt 1.879680 0.878252
vt 1.984479 0.840040
vt 1.934959 0.883049
vt -0.065041 0.883049
vt -0.009692 0.905340
vt 0.050393 0.900921
vt 0.151754 0.922388
vt 0.439850 0.939897
vt 0.859585 0.888708
vt 1.014328 0.882944
vt 1.101825 0.874944
vt 1.180219 0.877351
vt 1.265793 0.897401
vt 1.403351 0.809106
vt 1.522576 0.822481
vt 1.634349 0.869410
vt 1.737107 0.852581
vt 0.002176 -0.012756
vt -0.099685 0.059770
vt 1.691796 0.882659
vt 1.990308 0.905340
vt -0.308204 0.882659
vt -0.940812 0.034563
vt -0.814774 0.033512
vt -0.667281 -0.024235
vt -0.463564 -0.038726
vt -0.287344 -0.020041
vt -0.174441 0.003968

vn 0.373862 -0.921272 -0.107171
vn 0.397740 -0.912757 -0.093152
vn 0.525785 -0.849901 0.034892
vn 0.495474 -0.760973 -0.418839
vn 0.360440 -0.858776 -0.364124
vn 0.337779 -0.904646 -0.259848
vn 0.580021 -0.672062 -0.460335
vn 0.486092 -0.634358 -0.601086
vn 0.386352 -0.820343 -0.421628
vn 0.340150 -0.624281 -0.703258
vn 0.247504 -0.580371 -0.775829
vn 0.386107 -0.595168 -0.704767
vn 0.220067 -0.593587 -0.774096
vn -0.041019 -0.841609 -0.538528
vn -0.176267 -0.649939 -0.739263
vn -0.565437 -0.657984 -0.497331
vn -0.104255 -0.851230 -0.514333
vn -0.538926 -0.649028 -0.536955
vn -0.668981 -0.625542 -0.401448
vn -0.643055 -0.673775 -0.364016
vn -0.662922 -0.737477 -0.129082
vn -0.769085 -0.638691 -0.024113
vn -0.288940 -0.938511 0.188974
vn -0.317133 -0.947443 -0.042164
vn -0.775043 -0.517886 0.362081
vn -0.091399 -0.822201 0.561811
vn 0.123663 -0.813155 0.568759
vn -0.021944 -0.768531 0.639436
vn -0.476572 -0.872538 0.107500
vn -0.477210 -0.877441 0.048666
vn -0.427799 -0.903870 -0.002823
vn -0.370780 -0.917143 0.146186
vn -0.260237 -0.935844 0.237642
vn -0.537838 -0.790572 0.292790
vn -0.111141 -0.901173 0.418968
vn 0.130004 -0.964545 0.229677
vn -0.123563 -0.946893 0.296860
vn -0.024206 -0.673908 0.738418
vn 0.219042 -0.719534 0.659008
vn 0.354328 -0.933666 0.052151
vn 0.326497 -0.618426 0.714807
vn 0.604219 -0.632741 0.484312
vn 0.407725 -0.894755 -0.182137
vn 0.578557 -0.733966 0.355760
vn 0.657757 -0.721548 0.216156
vn 0.599707 -0.795345 0.088196
vn 0.632888 -0.540443 -0.554413
vn 0.765827 -0.356637 -0.535088
vn 0.779044 -0.367397 -0.508046
vn 0.762458 -0.416320 -0.495314
vn 0.613304 -0.528626 -0.586867
vn 0.326888 -0.595231 -0.734060
vn 0.129515 -0.556834 -0.820464
vn -0.030916 -0.656007 -0.754121
vn 0.073735 -0.508528 -0.857882
vn -0.298539 -0.659862 -0.689534
vn -0.413847 -0.481262 -0.772734
vn -0.568518 -0.488585 -0.661870
vn -0.646335 -0.590502 -0.483280
vn -0.809905 -0.548078 -0.208961
vn -0.933360 -0.321061 0.160498
vn -0.835585 -0.238821 0.494734
vn -0.718306 -0.370250 0.589025
vn -0.765946 -0.240154 0.596366
vn -0.572189 -0.693274 0.438144
vn -0.806160 -0.243875 0.539102
vn 0.076237 -0.539623 0.838448
vn -0.056701 -0.359943 0.931250
vn -0.067082 -0.283588 0.956597
vn 0.017386 -0.300024 0.953773
vn 0.393823 -0.294507 0.870729
vn 0.585846 -0.531159 0.612090
vn 0.401006 -0.513974 0.758304
vn 0.663283 -0.314747 0.678962
vn 0.727286 -0.617859 0.298839
vn 0.807157 -0.384464 0.447978
vn 0.906230 -0.422778 0.002433
vn 0.896867 -0.418236 -0.143902
vn 0.958985 -0.185515 -0.214317
vn 0.851116 -0.115487 -0.512118
vn 0.869243 -0.246779 -0.428388
vn 0.676097 -0.483992 -0.555558
vn 0.359224 -0.534750 -0.764853
vn 0.065076 -0.502224 -0.862285
vn -0.268783 -0.519971 -0.810793
vn -0.324189 -0.432296 -0.841440
vn -0.606744 -0.322972 -0.726327
vn -0.558295 -0.508030 -0.655905
vn -0.670485 0.042496 -0.740705
vn -0.630817 0.073581 -0.772435
vn -0.915744 -0.401526 -0.013766
vn -0.998249 0.059078 -0.002816
vn -0.987609 -0.035792 0.152798
vn -0.864256 -0.150946 0.479872
vn -0.770187 -0.138125 0.622683
vn -0.788182 -0.108704 0.605767
vn -0.264588 -0.036201 0.963682
vn 0.010587 0.010045 0.999893
vn 0.465167 -0.196489 0.863141
vn 0.267505 -0.135164 0.954029
vn 0.293559 0.194879 0.935866
vn 0.398379 0.104376 0.911263
vn 0.639063 -0.247775 0.728152
vn 0.420339 -0.039304 0.906516
vn 0.495216 0.011910 0.868688
vn 0.721609 -0.056512 0.689991
vn 0.872133 -0.054584 0.486214
vn 0.990947 -0.098550 -0.091169
vn 0.923602 0.382949 -0.017584
vn 0.776115 0.353779 -0.522001
vn 0.600170 0.467074 -0.649336
vn 0.846469 0.006286 -0.532401
vn 0.520456 0.438723 -0.732562
vn 0.394664 0.573976 -0.717490
vn 0.419695 0.540544 -0.729156
vn 0.106121 0.416509 -0.902917
vn 0.151429 0.552381 -0.819722
vn -0.424427 0.386709 -0.818729
vn -0.317004 0.524203 -0.790392
vn -0.672203 0.189508 -0.715702
vn -0.428514 0.588212 -0.685844
vn -0.568807 0.563631 -0.598981
vn -0.558852 0.599446 -0.573017
vn -0.902680 0.410932 -0.127684
vn -0.932947 0.359816 0.011928
vn -0.996555 0.039078 0.073146
vn -0.881752 -0.178721 0.436546
vn -0.739416 -0.170248 0.651368
vn -0.595507 -0.152482 0.788747
vn -0.737299 -0.117600 0.665252
vn 0.275205 0.433449 0.858128
vn 0.180560 0.523114 0.832917
vn 0.295282 0.221132 0.929467
vn 0.287340 0.503497 0.814817
vn 0.295037 0.390067 0.872239
vn 0.297946 0.270309 0.915511
vn 0.506885 0.436203 0.743502
vn 0.806873 0.396375 0.437998
vn 0.998607 0.006506 0.052367
vn 0.856150 0.336372 -0.392251
vn 0.600079 0.798982 0.039155
vn 0.618151 0.781879 0.080967
vn 0.716922 0.262554 -0.645824
vn 0.302021 0.616838 -0.726838
vn 0.406868 0.570041 -0.713801
vn 0.431726 0.535476 -0.725864
vn 0.213624 0.629057 -0.747430
vn 0.072371 0.646349 -0.759602
vn -0.441108 0.667521 -0.599867
vn -0.528920 0.646844 -0.549397
vn -0.518995 0.648034 -0.557401
vn -0.519890 0.741046 -0.424930
vn -0.861822 0.503969 -0.057261
vn -0.710794 0.525431 -0.467648
vn -0.615443 0.787840 -0.023219
vn -0.699203 0.675101 0.235276
vn -0.586240 0.789254 0.182758
vn -0.550984 0.663193 0.506550
vn -0.493255 0.785558 0.373629
vn -0.453125 0.641145 0.619363
vn -0.398574 0.762201 0.510086
vn 0.520002 0.575813 0.630903
vn 0.226738 0.682662 0.694668
vn 0.068536 0.600877 0.796398
vn -0.039000 0.680561 0.731653
vn 0.239318 0.721183 0.650094
vn 0.582882 0.728427 0.360059
vn 0.533738 0.809170 0.245698
vn 0.456538 0.886259 0.078217
vn 0.430302 0.900546 0.062108
vn 0.241215 0.867600 -0.434840
vn 0.361574 0.788039 -0.498255
vn 0.419097 0.564275 -0.711303
vn -0.050635 0.605258 -0.794418
vn -0.064872 0.652492 -0.755014
vn -0.307615 0.738038 -0.600560
vn -0.542007 0.693401 -0.474788
vn -0.559835 0.584128 -0.587690
vn -0.377252 0.748275 -0.545678
vn -0.477722 0.832391 -0.280905
vn -0.512626 0.848441 -0.131768
vn -0.433729 0.901040 0.002425
vn -0.447573 0.887564 0.109129
vn -0.441780 0.885919 0.141347
vn -0.417930 0.884596 0.206941
vn 0.355023 0.628348 0.692198
vn 0.664026 0.507636 0.548977
vn 0.086539 0.703867 0.705041
vn -0.152697 0.744718 0.649676
vn -0.179182 0.723919 0.666209
vn -0.033796 0.813706 0.580293
vn 0.128094 0.880505 0.456402
vn 0.448502 0.893413 0.025680
vn 0.498268 0.861425 0.098363
vn 0.186262 -0.981448 0.045465
vn 0.382941 -0.921255 0.068157
vn 0.349178 -0.935963 0.045246
vn 0.537154 0.835483 0.115907
vn 0.189561 -0.980040 -0.059906
vn 0.370344 0.923123 -0.103391
vn 0.344556 0.934681 -0.087478
vn 0.392315 -0.876698 -0.278370
vn 0.799366 0.482551 0.357993
vn 0.667415 0.712874 0.215331
vn 0.200171 -0.978164 -0.055913
vn -0.378093 0.925767 -0.001028
vn -0.135911 0.990720 -0.001100
vn -0.100482 0.993421 0.054936
vn 0.087791 -0.995166 -0.044023
vn -0.106411 -0.957817 -0.266951
vn -0.412367 0.835051 -0.364202
vn -0.390548 0.916209 0.089627
vn 0.139416 -0.989020 -0.049016
vn 0.118572 -0.931258 -0.344528
vn 0.087482 -0.994820 -0.051769
vn -0.255527 0.838670 -0.480976
vn -0.323656 0.862408 -0.389229
vn -0.112705 0.991220 -0.069141
vn 0.043073 -0.997775 -0.050886
vn -0.478649 0.877852 0.016452
vn -0.542422 0.776107 0.321615
vn -0.411394 0.886776 0.210675
vn -0.166959 -0.982579 0.081624
vn -0.391921 0.919946 0.009861
vn 0.083337 -0.995245 0.050428
vn -0.072671 -0.868324 0.490645
vn -0.371484 0.915432 0.154866
vn 0.280480 -0.837146 0.469594
vn 0.142906 -0.686495 0.712953
vn -0.128216 -0.991626 0.015470
vn -0.347885 -0.899846 0.263160
vn -0.170481 -0.984681 0.036603
vn -0.367466 -0.921234 0.127658
vn 0.064292 -0.997920 -0.004799
vn -0.373285 0.882864 0.284974
vn -0.441412 0.851193 0.283947
vn 0.441488 0.886795 0.136686
vn 0.485343 0.872727 0.052822
vn 0.206319 -0.968363 -0.140373
vn 0.369920 -0.896818 -0.242646
vn 0.958466 0.171704 -0.227731
vn 0.972775 0.022293 -0.230676
vn 0.188703 0.887007 0.421437
vn 0.296834 0.892881 0.338605
vn -0.750017 0.129237 0.648669
vn -0.594208 0.404634 0.695118
vn 0.077064 0.864646 0.496435
vn 0.965161 -0.127620 -0.228423
vn 0.370064 -0.827868 0.421530
vn 0.249343 -0.873322 0.418494
vn 0.124471 -0.904236 0.408491
vn -0.829117 -0.159379 0.535877

usemtl default
f 20/4/4 19/3/3 3/2/2 4/1/1
f 21/8/8 20/7/7 4/6/6 5/5/5
f 22/10/10 21/8/8 5/5/5 6/9/9
f 23/12/13 22/10/10 6/9/12 7/11/11
f 24/14/15 23/12/13 7/11/11 8/13/14
f 25/16/18 24/14/15 8/13/17 9/15/16
f 26/18/20 25/16/18 9/15/16 10/17/19
f 27/20/22 26/18/20 10/17/19 11/19/21
f 28/22/25 27/20/22 11/19/24 12/21/23
f 29/24/28 28/22/28 12/21/27 13/23/26
f 30/26/32 29/24/31 13/23/30 14/25/29
f 31/28/35 30/26/34 14/25/29 15/27/33
f 32/30/39 31/28/38 15/27/37 16/29/36
f 33/32/42 32/30/41 16/29/36 17/31/40
f 34/34/45 33/32/44 17/31/40 18/33/43
f 19/3/3 34/34/46 18/33/43 3/2/2
f 36/36/50 35/35/49 19/3/48 20/4/47
f 37/38/51 36/37/50 20/7/7 21/8/8
f 38/39/52 37/38/51 21/8/8 22/10/10
f 39/40/53 38/39/52 22/10/10 23/12/13
f 40/41/55 39/40/53 23/12/13 24/14/54
f 41/42/58 40/41/57 24/14/56 25/16/18
f 42/43/59 41/42/58 25/16/18 26/18/20
f 43/44/61 42/43/60 26/18/20 27/20/22
f 44/45/62 43/44/61 27/20/22 28/22/25
f 45/46/64 44/45/62 28/22/25 29/24/63
f 46/47/66 45/46/64 29/24/63 30/26/65
f 47/48/70 46/47/69 30/26/68 31/28/67
f 48/49/71 47/48/70 31/28/67 32/30/41
f 49/50/74 48/49/71 32/30/73 33/32/72
f 50/51/76 49/50/74 33/32/42 34/34/75
f 35/35/77 50/51/76 34/34/45 19/3/3
f 52/53/80 51/52/79 35/35/78 36/36/50
f 53/55/82 52/54/81 36/37/50 37/38/51
f 54/56/83 53/55/82 37/38/51 38/39/52
f 55/57/84 54/56/83 38/39/52 39/40/53
f 56/58/86 55/57/84 39/40/53 40/41/85
f 57/59/87 56/58/86 40/41/57 41/42/58
f 58/60/90 57/59/89 41/42/58 42/43/88
f 59/61/93 58/60/92 42/43/91 43/44/61
f 60/62/94 59/61/93 43/44/61 44/45/62
f 61/63/95 60/62/94 44/45/62 45/46/64
f 62/64/96 61/63/95 45/46/64 46/47/66
f 63/65/98 62/64/97 46/47/69 47/48/70
f 118/69/102 117/68/101 114/67/100 115/66/99
f 119/71/105 118/69/104 115/66/99 116/70/103
f 65/73/107 64/72/106 49/50/74 50/51/76
f 51/52/108 65/73/107 50/51/76 35/35/77
f 67/75/110 66/74/109 51/52/108 52/53/80
f 68/77/113 67/76/110 52/54/112 53/55/111
f 69/78/115 68/77/113 53/55/111 54/56/114
f 70/79/117 69/78/115 54/56/114 55/57/116
f 71/80/119 70/79/117 55/57/116 56/58/118
f 72/81/122 71/80/121 56/58/118 57/59/120
f 73/82/123 72/81/122 57/59/120 58/60/90
f 74/83/125 73/82/124 58/60/92 59/61/93
f 75/84/127 74/83/126 59/61/93 60/62/94
f 76/85/128 75/84/127 60/62/94 61/63/95
f 77/86/130 76/85/128 61/63/95 62/64/129
f 78/87/132 77/86/131 62/64/98 63/65/98
f 121/89/135 120/88/134 117/68/101 118/69/133
f 122/90/136 121/89/135 118/69/102 119/71/105
f 81/92/138 80/91/137 64/72/106 65/73/107
f 66/74/109 81/92/138 65/73/107 51/52/139
f 83/94/142 82/93/141 66/74/109 67/75/140
f 84/96/145 83/95/144 67/76/143 68/77/113
f 85/97/146 84/96/145 68/77/113 69/78/115
f 86/98/147 85/97/146 69/78/115 70/79/117
f 87/99/149 86/98/148 70/79/117 71/80/121
f 88/100/151 87/99/149 71/80/150 72/81/122
f 89/101/152 88/100/151 72/81/122 73/82/123
f 90/102/155 89/101/152 73/82/154 74/83/153
f 91/103/157 90/102/155 74/83/153 75/84/156
f 92/104/159 91/103/157 75/84/156 76/85/158
f 93/105/161 92/104/159 76/85/158 77/86/160
f 94/106/163 93/105/162 77/86/131 78/87/132
f 95/108/165 94/106/163 78/87/132 79/107/164
f 96/109/166 95/108/165 79/107/164 80/91/137
f 97/110/167 96/109/166 80/91/137 81/92/138
f 82/93/141 97/110/168 81/92/138 66/74/109
f 99/112/170 98/111/169 82/93/141 83/94/142
f 100/114/172 99/112/171 83/94/144 84/113/145
f 101/116/173 100/115/172 84/96/145 85/97/146
f 102/117/174 101/116/173 85/97/146 86/98/148
f 103/118/176 102/117/174 86/98/175 87/99/149
f 104/119/178 103/118/177 87/99/149 88/100/151
f 105/120/180 104/119/179 88/100/151 89/101/152
f 106/121/182 105/120/181 89/101/152 90/102/155
f 107/122/183 106/121/182 90/102/155 91/103/157
f 108/123/184 107/122/183 91/103/157 92/104/159
f 109/124/185 108/123/184 92/104/159 93/105/161
f 110/125/187 109/124/187 93/105/162 94/106/186
f 111/126/190 110/125/189 94/106/188 95/108/165
f 112/127/191 111/126/190 95/108/165 96/109/166
f 113/128/193 112/127/192 96/109/166 97/110/168
f 98/111/169 113/128/193 97/110/194 82/93/141
f 4/6/197 3/130/196 1/129/195
f 2/131/198 98/111/169 99/112/170
f 5/5/5 4/6/1 1/129/199
f 2/131/201 99/112/200 100/114/172
f 6/9/202 5/5/5 1/129/199
f 2/131/204 100/114/203 101/132/203
f 7/11/205 6/9/202 1/129/199
f 2/133/208 101/116/207 102/117/206
f 8/13/210 7/11/205 1/129/209
f 2/133/212 102/117/206 103/118/211
f 9/15/215 8/13/214 1/129/213
f 2/133/218 103/118/217 104/119/216
f 10/17/219 9/15/215 1/129/209
f 2/133/222 104/119/221 105/120/220
f 11/19/223 10/17/219 1/129/209
f 2/131/224 105/120/181 106/121/182
f 12/21/226 11/19/223 1/129/225
f 2/131/227 106/121/182 107/122/183
f 13/134/229 12/21/27 1/129/228
f 2/131/227 107/122/183 108/123/184
f 14/135/29 13/134/231 1/129/230
f 2/131/227 108/123/184 109/124/185
f 15/136/233 14/135/29 1/129/232
f 2/131/204 109/124/187 110/125/187
f 16/137/36 15/136/33 1/129/234
f 2/131/235 110/125/189 111/126/190
f 17/138/40 16/137/36 1/129/199
f 2/131/236 111/126/190 112/127/191
f 18/139/43 17/138/40 1/129/199
f 2/131/238 112/127/237 113/128/193
f 3/130/240 18/139/43 1/129/239
f 2/131/238 113/128/193 98/111/169
f 117/68/242 63/65/242 47/48/241 114/67/241
f 114/67/244 47/48/244 48/49/243 115/66/243
f 116/70/246 49/50/246 64/72/245 119/71/245
f 115/66/243 48/49/243 49/50/247 116/70/247
f 120/88/248 78/87/248 63/65/242 117/68/242
f 121/89/250 79/107/250 78/87/249 120/88/249
f 122/90/251 80/91/251 79/107/250 121/89/250
f 119/71/245 64/72/245 80/91/252 122/90/252

